<?xml version="1.0" standalone="no"?>
<!DOCTYPE svg PUBLIC "-//W3C//DTD SVG 20010904//EN"
 "http://www.w3.org/TR/2001/REC-SVG-20010904/DTD/svg10.dtd">
<svg version="1.0" xmlns="http://www.w3.org/2000/svg"
 width="512.000000pt" height="512.000000pt" viewBox="0 0 512.000000 512.000000"
 preserveAspectRatio="xMidYMid meet">

<g transform="translate(0.000000,512.000000) scale(0.100000,-0.100000)"
fill="#000000" stroke="none">
<path d="M897 4030 c-38 -30 -52 -80 -33 -123 30 -73 -119 -67 1815 -65 l1739
3 26 24 c51 48 40 142 -20 170 -18 8 -504 11 -1763 11 -1728 0 -1738 0 -1764
-20z"/>
<path d="M2625 3616 c-41 -19 -471 -454 -485 -490 -24 -65 30 -136 103 -136
38 0 47 6 179 137 l138 137 0 -809 0 -810 -127 127 c-71 69 -138 131 -150 137
-77 39 -173 -44 -143 -125 6 -16 115 -134 243 -262 246 -247 263 -258 326
-233 36 16 476 458 486 489 24 80 -51 158 -132 137 -15 -3 -84 -63 -160 -137
l-133 -131 0 808 0 809 138 -137 c127 -125 142 -137 175 -137 50 0 82 17 102
55 36 65 26 79 -227 332 -202 201 -264 254 -296 253 -4 -1 -20 -7 -37 -14z"/>
<path d="M913 1054 c-29 -15 -63 -65 -63 -94 0 -7 7 -27 16 -45 33 -70 -104
-65 1798 -65 1880 0 1768 -4 1800 59 20 38 20 64 0 102 -32 63 80 59 -1801 59
-1540 0 -1721 -2 -1750 -16z"/>
</g>
</svg>
