<?xml version="1.0" standalone="no"?>
<!DOCTYPE svg PUBLIC "-//W3C//DTD SVG 20010904//EN"
 "http://www.w3.org/TR/2001/REC-SVG-20010904/DTD/svg10.dtd">
<svg version="1.0" xmlns="http://www.w3.org/2000/svg"
 width="512.000000pt" height="512.000000pt" viewBox="0 0 512.000000 512.000000"
 preserveAspectRatio="xMidYMid meet">

<g transform="translate(0.000000,512.000000) scale(0.100000,-0.100000)"
fill="#000000" stroke="none">
<path d="M2504 5101 c-17 -11 -36 -34 -43 -52 -17 -50 -15 -460 3 -504 15 -35
59 -65 96 -65 37 0 81 30 96 65 11 26 14 87 14 255 0 245 -6 277 -59 304 -40
21 -69 20 -107 -3z"/>
<path d="M754 4366 c-39 -39 -45 -85 -18 -126 27 -41 307 -320 336 -336 99
-52 196 45 144 144 -17 32 -312 325 -343 341 -42 21 -83 13 -119 -23z"/>
<path d="M4240 4384 c-41 -27 -320 -307 -336 -336 -52 -99 45 -196 144 -144
29 16 309 295 336 336 27 41 21 87 -18 126 -39 39 -85 45 -126 18z"/>
<path d="M2835 4254 c-21 -10 -233 -286 -675 -876 -355 -473 -651 -874 -658
-890 -16 -38 -1 -89 35 -118 25 -19 40 -20 411 -20 l385 0 -6 -37 c-3 -21 -45
-336 -93 -701 -63 -479 -85 -670 -78 -689 21 -58 103 -85 156 -51 28 19 1303
1950 1313 1990 10 38 -20 93 -60 112 -28 14 -87 16 -402 16 l-370 0 99 591
c95 568 98 592 82 624 -15 32 -65 65 -96 65 -7 0 -26 -7 -43 -16z m-206 -952
c-64 -384 -71 -434 -59 -462 27 -64 29 -64 405 -70 l341 -5 -436 -662 c-239
-365 -440 -667 -446 -673 -5 -5 21 221 58 503 38 281 66 526 63 543 -3 17 -17
42 -31 55 l-26 24 -339 3 c-187 1 -339 6 -337 11 5 14 873 1169 876 1166 1 -1
-30 -196 -69 -433z"/>
<path d="M63 2655 c-33 -14 -63 -59 -63 -95 0 -37 30 -81 65 -96 26 -11 87
-14 255 -14 168 0 229 3 255 14 35 15 65 59 65 96 0 37 -30 81 -65 96 -48 20
-465 20 -512 -1z"/>
<path d="M4543 2655 c-33 -14 -63 -59 -63 -95 0 -37 30 -81 65 -96 26 -11 87
-14 255 -14 168 0 229 3 255 14 35 15 65 59 65 96 0 37 -30 81 -65 96 -48 20
-465 20 -512 -1z"/>
<path d="M1075 1219 c-28 -16 -291 -276 -326 -323 -41 -55 -39 -98 5 -142 39
-39 85 -45 126 -18 41 27 320 307 336 336 39 73 -6 158 -83 158 -21 0 -47 -6
-58 -11z"/>
<path d="M3919 1201 c-33 -33 -39 -83 -15 -129 16 -29 295 -309 336 -336 41
-27 87 -21 126 18 44 44 46 87 5 142 -34 45 -284 293 -321 318 -40 26 -97 21
-131 -13z"/>
<path d="M2504 621 c-48 -29 -54 -61 -54 -303 0 -243 6 -275 59 -302 38 -20
64 -20 102 0 53 27 59 59 59 304 0 245 -6 277 -59 304 -40 21 -69 20 -107 -3z"/>
</g>
</svg>
